<mxfile host="65bd71144e">
    <diagram id="eRz4iOo6eL2ObuwE2JQ0" name="第 1 页">
        <mxGraphModel dx="793" dy="444" grid="1" gridSize="10" guides="1" tooltips="1" connect="1" arrows="1" fold="1" page="1" pageScale="1" pageWidth="827" pageHeight="1169" math="0" shadow="0">
            <root>
                <mxCell id="0"/>
                <mxCell id="1" parent="0"/>
                <mxCell id="11" style="edgeStyle=none;html=1;fontFamily=Times New Roman;fontSize=19;endArrow=none;endFill=0;" parent="1" source="2" target="5" edge="1">
                    <mxGeometry relative="1" as="geometry"/>
                </mxCell>
                <mxCell id="12" style="edgeStyle=none;html=1;fontFamily=Times New Roman;fontSize=19;endArrow=none;endFill=0;" parent="1" source="2" target="6" edge="1">
                    <mxGeometry relative="1" as="geometry"/>
                </mxCell>
                <mxCell id="2" value="2" style="ellipse;whiteSpace=wrap;html=1;fontFamily=Times New Roman;fontSize=19;" parent="1" vertex="1">
                    <mxGeometry x="300" y="140" width="40" height="40" as="geometry"/>
                </mxCell>
                <mxCell id="13" style="edgeStyle=none;html=1;fontFamily=Times New Roman;fontSize=19;endArrow=none;endFill=0;" parent="1" source="5" target="7" edge="1">
                    <mxGeometry relative="1" as="geometry"/>
                </mxCell>
                <mxCell id="14" style="edgeStyle=none;html=1;fontFamily=Times New Roman;fontSize=19;endArrow=none;endFill=0;" parent="1" source="5" target="8" edge="1">
                    <mxGeometry relative="1" as="geometry"/>
                </mxCell>
                <mxCell id="5" value="4" style="ellipse;whiteSpace=wrap;html=1;fontFamily=Times New Roman;fontSize=19;" parent="1" vertex="1">
                    <mxGeometry x="240" y="190" width="40" height="40" as="geometry"/>
                </mxCell>
                <mxCell id="16" style="edgeStyle=none;html=1;fontFamily=Times New Roman;fontSize=19;endArrow=none;endFill=0;" parent="1" source="6" target="9" edge="1">
                    <mxGeometry relative="1" as="geometry"/>
                </mxCell>
                <mxCell id="6" value="5" style="ellipse;whiteSpace=wrap;html=1;fontFamily=Times New Roman;fontSize=19;" parent="1" vertex="1">
                    <mxGeometry x="360" y="190" width="40" height="40" as="geometry"/>
                </mxCell>
                <mxCell id="7" value="8" style="ellipse;whiteSpace=wrap;html=1;fontFamily=Times New Roman;fontSize=19;" parent="1" vertex="1">
                    <mxGeometry x="210" y="240" width="40" height="40" as="geometry"/>
                </mxCell>
                <mxCell id="8" value="6" style="ellipse;whiteSpace=wrap;html=1;fontFamily=Times New Roman;fontSize=19;" parent="1" vertex="1">
                    <mxGeometry x="270" y="240" width="40" height="40" as="geometry"/>
                </mxCell>
                <mxCell id="9" value="7" style="ellipse;whiteSpace=wrap;html=1;fontFamily=Times New Roman;fontSize=19;" parent="1" vertex="1">
                    <mxGeometry x="330" y="240" width="40" height="40" as="geometry"/>
                </mxCell>
            </root>
        </mxGraphModel>
    </diagram>
</mxfile>